<svg xmlns="http://www.w3.org/2000/svg" xmlns:xlink="http://www.w3.org/1999/xlink" version="1.0" color-interpolation-filters="sRGB" style="margin:auto" viewBox="87.93 92.02 164.14 65.96"><rect width="100%" height="100%" fill="none" class="background"/><g fill="rgba(255, 255, 245, 0.86)" class="icon-text-wrapper icon-svg-group iconsvg"><g transform="translate(87.928 92.02)" class="iconsvg-imagesvg"><path class="image-rect" fill="none" d="M0 0h60v65.959H0z"/><svg width="60" height="65.959" class="image-svg-svg primary" style="overflow:visible"><svg xmlns="http://www.w3.org/2000/svg" viewBox="0.028 0 90.947 99.98"><g fill-rule="evenodd"><path d="M22.8 28.3A37.32 37.32 0 1 1 3 77.21 37.3 37.3 0 0 1 22.8 28.3" fill="#0131b9"/><path d="M30.76 41C1.66 54 1.27 84.61 28.88 99 19 82.51 29.7 65.69 39.64 62.09L69 49.69a28.36 28.36 0 0 0 3.87-1.76c9.34-5.27 13-18.62 6.47-26.86-.05 0-36.22 14.4-48.58 19.93z" fill="#1a85f8" opacity=".8"/><path d="m29.09 46.11 1-.46 50.15-21.2A19.72 19.72 0 0 0 89.73 0L22.8 28.3A37.31 37.31 0 0 0 28.88 99a29.22 29.22 0 0 1 .21-52.91" fill="#2ddaff" opacity=".8"/></g></svg></svg></g><path d="M194.322 123.34h-18.87v13.75q0 .77-.57 1.37-.58.61-1.35.61-.83 0-1.4-.61-.58-.6-.58-1.37v-15.67q0-.83.58-1.43.57-.61 1.4-.61h22.72q.82 0 1.4.61.57.6.57 1.43v15.78q0 .82-.57 1.4-.58.58-1.4.58-.78 0-1.35-.58-.58-.58-.58-1.4v-13.86zm-26.13 30.91q-.82.17-1.48-.25-.66-.41-.88-1.23-.17-.83.27-1.46.45-.64 1.27-.8 7.04-1.87 10.94-7.09 2.26-2.98 3.44-6.39 1.19-3.4 1.19-6.6v-2.8q0-.82.57-1.43.58-.61 1.35-.61.83 0 1.4.61.58.61.58 1.43v2.8q0 3.8-1.35 7.87-1.34 4.07-4.09 7.54-4.68 6.21-13.21 8.41zm19.37-7.43v-6.32q0-.83.6-1.4.61-.58 1.43-.58.77 0 1.35.58.58.57.58 1.4v6.32q0 1.99 1.7 2.75.88.39 1.87.39 1.1.06 2.09-.27 2.2-.66 2.69-3.14l.28-2.64q.17-.82.77-1.29.61-.47 1.43-.41.83.1 1.32.74.49.63.44 1.46l-.39 2.64q-.32 2.52-1.78 4.09-1.46 1.57-3.5 2.28-1.75.55-3.51.45-1.76-.06-3.41-.83-1.71-.83-2.84-2.39-1.12-1.57-1.12-3.83zm12.81-38.93h-30.36q-.77 0-1.35-.56-.57-.54-.57-1.37 0-.82.57-1.4.58-.58 1.35-.58h30.36q.82 0 1.4.58t.58 1.4q0 .83-.58 1.37-.58.56-1.4.56zm-23.98 2.64 2.37 4.12q.38.71.16 1.49-.22.76-.93 1.15-.72.38-1.49.17-.77-.23-1.21-.94l-2.31-4.12q-.38-.72-.14-1.49.25-.77.96-1.16.72-.38 1.46-.16.75.22 1.13.94zm21.01 1.87-2.31 4.12q-.38.71-1.15.94-.77.21-1.49-.17-.71-.39-.93-1.15-.23-.78.16-1.49l2.31-4.12q.44-.72 1.21-.94.77-.22 1.49.16.71.39.9 1.16.2.77-.19 1.49zm-11.66-1.87 2.37 4.12q.38.71.16 1.49-.22.76-.94 1.15-.71.38-1.48.17-.77-.23-1.21-.94l-2.31-4.12q-.38-.72-.14-1.49.25-.77.96-1.16.72-.38 1.46-.16.75.22 1.13.94zm55.6 8.3v-3.3h-19.69q-.76 0-1.34-.58-.58-.58-.58-1.4 0-.77.58-1.35.58-.58 1.34-.58h19.69v-3.35h-21.89q-.82 0-1.4-.55t-.58-1.38q0-.82.58-1.37.58-.55 1.4-.55h23.88q.82 0 1.4.55t.58 1.37V120.81q0 .77-.58 1.35-.58.58-1.4.58h-23.88q-.82 0-1.4-.58t-.58-1.35q0-.82.58-1.4t1.4-.58h21.89zm-26.62 9.9h24.2v-2.42q0-.82.58-1.4t1.4-.58q.78 0 1.35.58.58.58.58 1.4v2.42h7.32q.76 0 1.34.58.58.57.58 1.4 0 .77-.58 1.35-.58.57-1.34.57h-7.32v19.92q0 .82-.58 1.4-.57.58-1.35.58-.82 0-1.4-.58t-.58-1.4v-19.92h-24.2q-.82 0-1.4-.57-.57-.58-.57-1.35 0-.83.57-1.4.58-.58 1.4-.58zm14.03 9.02v6.88q0 .76-.6 1.37-.61.61-1.43.61-.83 0-1.38-.61-.55-.61-.55-1.37v-6.88q0-.77.55-1.35.55-.57 1.38-.57.82 0 1.43.57.6.58.6 1.35z" data-gra="path-name" class="tp-name iconsvg-namesvg"/></g></svg>